<?xml version="1.0" standalone="no"?>
<!DOCTYPE svg PUBLIC "-//W3C//DTD SVG 20010904//EN"
 "http://www.w3.org/TR/2001/REC-SVG-20010904/DTD/svg10.dtd">
<svg version="1.0" xmlns="http://www.w3.org/2000/svg"
 width="1051.000000pt" height="1280.000000pt" viewBox="0 0 1051.000000 1280.000000"
 preserveAspectRatio="xMidYMid meet">
<metadata>
Created by potrace 1.15, written by Peter Selinger 2001-2017
</metadata>
<g transform="translate(0.000000,1280.000000) scale(0.100000,-0.100000)"
fill="#000000" stroke="none">
<path d="M3463 12791 c-42 -19 -151 -202 -406 -678 -411 -769 -1048 -2070
-1347 -2753 -134 -306 -149 -338 -191 -407 -127 -207 -327 -411 -784 -799
-434 -368 -735 -651 -735 -689 0 -29 79 -97 166 -143 258 -133 638 -271 2019
-729 1098 -365 1437 -478 1735 -583 113 -40 295 -102 405 -139 182 -60 204
-70 242 -108 50 -49 75 -121 93 -266 14 -113 9 -291 -9 -325 -11 -21 -18 -23
-49 -17 -150 28 -1597 510 -2872 957 -234 82 -848 300 -935 333 -49 18 -151
56 -225 83 -231 86 -344 133 -366 153 -11 10 -30 19 -43 19 -27 0 -66 -41 -81
-86 -32 -95 78 -169 470 -316 58 -22 229 -84 380 -138 333 -119 697 -258 920
-352 91 -38 233 -98 316 -133 220 -92 463 -181 764 -280 734 -240 928 -317
1077 -429 192 -145 225 -279 239 -971 9 -418 2 -438 -130 -349 -39 27 -519
385 -1066 795 -1107 829 -1398 1043 -1735 1273 -183 126 -231 154 -233 139 -5
-38 45 -804 54 -813 5 -4 183 -78 395 -163 542 -218 792 -335 1049 -491 195
-119 462 -314 575 -420 l50 -47 -50 6 c-58 8 -344 95 -745 228 -635 210 -883
312 -977 403 -36 34 -43 47 -43 80 0 21 4 55 10 73 5 19 8 37 5 39 -20 20
-174 -119 -205 -184 -18 -37 -22 -57 -18 -107 11 -128 82 -228 403 -560 l215
-222 -53 -53 c-179 -183 -413 -373 -528 -429 l-57 -28 -12 -68 c-7 -38 -8 -72
-4 -77 14 -13 677 -343 792 -395 114 -50 240 -95 269 -95 32 0 224 -66 425
-145 364 -145 730 -314 954 -440 248 -140 370 -187 428 -165 55 21 172 -13
392 -113 202 -92 456 -168 704 -212 168 -29 364 -89 426 -130 64 -42 131 -271
169 -580 26 -210 17 -345 -24 -345 -22 0 -445 145 -846 290 -170 62 -346 125
-390 140 -44 15 -269 96 -500 180 -859 311 -1151 415 -1565 562 -495 174 -617
224 -714 289 -76 51 -106 89 -106 137 0 56 -22 58 -82 5 -73 -64 -125 -124
-137 -156 -24 -62 39 -134 169 -195 478 -224 2780 -1128 3785 -1487 352 -125
485 -167 510 -161 60 15 414 370 1075 1076 244 261 739 786 1100 1165 941 991
1104 1165 1481 1585 250 280 446 448 647 554 51 27 108 66 127 87 61 68 67
107 72 449 7 433 -9 561 -81 657 -17 23 -73 74 -124 113 -205 157 -187 197
172 373 119 59 221 107 227 107 7 0 9 248 6 758 -3 664 -6 766 -20 827 -40
165 -122 267 -325 402 -64 43 -342 215 -618 381 l-500 302 -13 238 c-29 550
-41 588 -224 676 -51 24 -149 71 -218 104 -139 67 -180 103 -200 174 -15 59 9
152 100 386 121 311 139 413 167 942 22 411 24 786 5 860 -53 209 -183 266
-691 300 -91 6 -469 31 -840 55 -371 25 -979 67 -1350 94 -1271 94 -1654 117
-2045 126 -150 3 -259 1 -272 -4z m-1398 -4255 c105 -14 231 -30 280 -36 196
-23 1357 -135 2165 -210 300 -28 617 -57 705 -65 230 -21 1263 -110 1575 -136
146 -12 269 -25 273 -28 4 -4 9 -223 10 -487 2 -517 1 -530 -50 -553 -20 -9
-86 -5 -316 19 -359 36 -782 75 -2032 185 -533 47 -1121 99 -1305 115 -688 61
-1487 130 -1508 130 l-22 0 0 551 c0 519 1 550 18 545 9 -3 103 -16 207 -30z
m14 -4511 c373 -168 543 -259 781 -418 246 -164 411 -300 623 -512 208 -209
287 -329 326 -495 21 -89 75 -479 68 -487 -9 -8 -606 541 -1287 1182 -470 443
-910 875 -910 892 0 14 98 -26 399 -162z"/>
</g>
</svg>
